<mxfile host="app.diagrams.net" modified="2023-09-04T23:08:08.025Z" agent="Mozilla/5.0 (Windows NT 10.0; Win64; x64; rv:109.0) Gecko/20100101 Firefox/117.0" version="21.7.2" etag="KD1UoRnghjL-hBV7djiC" type="github">
  <diagram name="Page-1" id="Ibva7xswk7MlykJWga5B">
    <mxGraphModel>
      <root>
        <mxCell id="0" />
        <mxCell id="1" parent="0" />
      </root>
    </mxGraphModel>
  </diagram>
</mxfile>
